#!OML:ASF I:\golf\golf\golf 2\Subject 1\2002-09-07\Subject1.ASF
:FULLY-SPECIFIED
:DEGREES
451
root 0.167237 18.0063 -4.11565 12.8558 6.25199 -1.34409
lowerback 9.25809 2.99452 -2.00164
upperback 4.69397 3.88094 4.5192
thorax -0.748903 1.87548 5.43873
lowerneck -19.2574 -6.14194 -3.22208
upperneck 15.7255 -8.07265 3.00804
head 8.29922 -3.69513 0.499671
rclavicle -5.40694e-014 -3.18055e-014
rhumerus -17.0152 4.39064 -72.103
rradius 26.4847
rwrist -10.8525
rhand -25.1388 11.7209
rfingers 7.12502
rthumb 1.37747 -18.2544
lclavicle -5.40694e-014 -3.18055e-014
lhumerus -34.3392 -19.8508 96.0178
lradius 60.4993
lwrist 12.6158
lhand -16.5664 23.0737
lfingers 7.12502
lthumb 9.65372 52.8324
rfemur -29.3427 -12.0759 24.6985
rtibia 34.4092
rfoot -13.2762 -11.8303
rtoes 9.31877
lfemur -28.3461 3.1573 -14.7856
ltibia 29.0959
lfoot -13.018 -3.26173
ltoes -11.6705
452
root 0.178636 18.0089 -4.09073 12.7716 6.05066 -1.36546
lowerback 8.53963 2.91477 -2.0503
upperback 4.40798 3.77812 4.40141
thorax -0.636076 1.82762 5.37785
lowerneck -19.3672 -6.11296 -3.1467
upperneck 15.7811 -8.07477 3.10891
head 8.33857 -3.67869 0.517132
rclavicle -4.49253e-014 -2.06736e-014
rhumerus -17.6789 3.87577 -72.1419
rradius 25.9673
rwrist -10.4248
rhand -24.6945 11.7905
rfingers 7.12502
rthumb 1.80666 -18.1816
lclavicle -4.49253e-014 -2.06736e-014
lhumerus -34.073 -19.1384 95.5176
lradius 59.7114
lwrist 12.427
lhand -16.559 22.7961
lfingers 7.12502
lthumb 9.66089 52.5546
rfemur -28.5784 -11.8274 24.6158
rtibia 33.4802
rfoot -13.0035 -11.9881
rtoes 8.23001
lfemur -27.8493 3.26545 -14.8292
ltibia 28.6602
lfoot -13.539 -2.85236
ltoes -11.5873
453
root 0.187084 18.0174 -4.06787 12.599 5.87976 -1.67994
lowerback 8.0837 2.82575 -1.81342
upperback 4.02692 3.68621 4.34008
thorax -0.753077 1.79346 5.19716
lowerneck -19.5543 -6.03975 -3.04166
upperneck 16.0718 -8.0312 3.20047
head 8.46802 -3.63476 0.527679
rclavicle 3.57812e-015 6.36111e-015
rhumerus -18.6903 3.35946 -72.2353
rradius 25.8027
rwrist -9.85592
rhand -24.3925 11.7019
rfingers 7.12502
rthumb 2.09834 -18.2675
lclavicle 3.57812e-015 6.36111e-015
lhumerus -33.8626 -18.427 94.9463
lradius 59.1209
lwrist 12.6967
lhand -16.8741 22.8135
lfingers 7.12502
lthumb 9.3568 52.5858
rfemur -27.7924 -11.531 24.8562
rtibia 32.6221
rfoot -12.6778 -12.169
rtoes 6.83101
lfemur -27.3036 3.41813 -14.521
ltibia 28.2856
lfoot -14.1554 -2.6153
ltoes -8.75204
454
root 0.193469 18.0353 -4.04461 12.2831 5.72017 -1.95472
lowerback 7.86457 2.7155 -1.68887
upperback 3.6463 3.55873 4.33323
thorax -1.0061 1.74148 5.13031
lowerneck -19.5561 -5.98825 -2.94417
upperneck 16.3139 -8.00172 3.20922
head 8.54611 -3.61011 0.515873
rclavicle 4.69132e-014 3.57812e-014
rhumerus -19.782 3.03738 -72.2995
rradius 25.7958
rwrist -9.2967
rhand -24.1124 11.3048
rfingers 7.12502
rthumb 2.36883 -18.6618
lclavicle 4.69132e-014 3.57812e-014
lhumerus -33.8428 -17.6583 94.4857
lradius 58.0937
lwrist 11.9106
lhand -19.5584 19.1912
lfingers 7.12502
lthumb 6.76614 49.0631
rfemur -26.9083 -11.1929 25.0011
rtibia 31.824
rfoot -12.4405 -12.3217
rtoes 6.31344
lfemur -26.5979 3.5678 -14.2489
ltibia 27.9209
lfoot -14.672 -2.21855
ltoes -7.34475
455
root 0.199222 18.0551 -4.0205 12.0374 5.54292 -1.92447
lowerback 7.54331 2.62428 -1.87437
upperback 3.29036 3.43302 4.26625
thorax -1.19086 1.68684 5.18149
lowerneck -19.5074 -5.90883 -2.89469
upperneck 16.4625 -7.92509 3.25324
head 8.58598 -3.56479 0.532462
rclavicle 4.65156e-014 -1.74931e-014
rhumerus -20.4409 2.68485 -72.3056
rradius 25.2242
rwrist -8.70478
rhand -23.9521 10.9868
rfingers 7.12502
rthumb 2.5236 -18.978
lclavicle 4.65156e-014 -1.74931e-014
lhumerus -33.7827 -16.7795 93.9955
lradius 57.5301
lwrist 11.9523
lhand -18.8081 20.2744
lfingers 7.12502
lthumb 7.49036 50.1218
rfemur -26.1244 -10.8681 24.8076
rtibia 31.1014
rfoot -12.2907 -12.4411
rtoes 6.58795
lfemur -25.9009 3.54221 -14.2908
ltibia 27.489
lfoot -14.8555 -1.4403
ltoes -9.17962
456
root 0.205384 18.0756 -3.99911 11.8984 5.34398 -1.97505
lowerback 7.06059 2.53658 -1.96003
upperback 2.97171 3.31824 4.20677
thorax -1.24269 1.63577 5.19005
lowerneck -19.4865 -5.81991 -2.81511
upperneck 16.4477 -7.83551 3.29398
head 8.57316 -3.51419 0.546384
rclavicle 2.8625e-014 1.11319e-014
rhumerus -20.7691 2.03686 -72.243
rradius 24.3334
rwrist -7.85966
rhand -23.964 11.007
rfingers 7.12502
rthumb 2.51215 -18.9579
lclavicle 2.8625e-014 1.11319e-014
lhumerus -33.6505 -15.8878 93.481
lradius 56.7303
lwrist 11.4264
lhand -18.7042 20.6429
lfingers 7.12502
lthumb 7.59069 50.4867
rfemur -25.547 -10.5486 24.7348
rtibia 30.4939
rfoot -12.2097 -12.5225
rtoes 6.94543
lfemur -25.2869 3.46294 -14.2172
ltibia 26.9503
lfoot -14.8772 -0.73127
ltoes -9.97481
457
root 0.211361 18.0918 -3.98151 11.8067 5.13724 -2.13298
lowerback 6.46941 2.44294 -1.95801
upperback 2.72968 3.20046 4.19941
thorax -1.15209 1.5798 5.20914
lowerneck -19.6084 -5.76006 -2.79438
upperneck 16.4893 -7.76719 3.33122
head 8.60731 -3.47449 0.561071
rclavicle -4.37326e-015 1.74931e-014
rhumerus -21.0953 1.46996 -72.1348
rradius 23.7472
rwrist -7.27174
rhand -24.0023 11.1586
rfingers 7.12502
rthumb 2.4751 -18.8068
lclavicle -4.37326e-015 1.74931e-014
lhumerus -33.3623 -14.9079 92.9376
lradius 55.8612
lwrist 10.7708
lhand -16.1671 23.6846
lfingers 7.12502
lthumb 10.039 53.4251
rfemur -25.1179 -10.2011 24.8008
rtibia 29.9837
rfoot -12.1093 -12.5854
rtoes 7.56304
lfemur -24.7665 3.45402 -14.0296
ltibia 26.3904
lfoot -15.0948 -0.384359
ltoes -7.56731
